# xmcd CD database file
#
# Track frame offsets:
#	150
#	21359
#	41275
#	60480
#	85457
#	112938
#	130802
#	159174
#
# Disc length: 2442 seconds
#
# Revision: 0
# Processed by: cddbd v1.4PL0 Copyright (c) Steve Scherf et al.
# Submitted via: CDex 1.50
#
DISCID=58098808
DTITLE=Millenium 2000 - Beautiful Dreams In 2000 New Age Music
DYEAR=2000
DGENRE=New Age
TTITLE0=Millenium 2000 - The Dream Suite - Dream Vs Brain
TTITLE1=Millenium 2000 - The Dream Suite - Sleep Vs Dream
TTITLE2=Millenium 2000 - The Dream Suite - Primitivity Vs Dream
TTITLE3=Millenium 2000 - The Dream Suite - Life Vs Dream
TTITLE4=Millenium 2000 - The Dream Suite - Dream Vs Dream
TTITLE5=Millenium 2000 - Lakoskopia
TTITLE6=Millenium 2000 - Wonder-Wender
TTITLE7=Millenium 2000 - Barbarescue
EXTD=YEAR: 2000
EXTT0=
EXTT1=
EXTT2=
EXTT3=
EXTT4=
EXTT5=
EXTT6=
EXTT7=
PLAYORDER=
